<svg width="7" height="35" viewBox="0 0 7 35" fill="none" xmlns="http://www.w3.org/2000/svg">
<path d="M7 31.5C7 32.4283 6.63125 33.3185 5.97487 33.9749C5.3185 34.6313 4.42826 35 3.5 35C2.57174 35 1.6815 34.6313 1.02513 33.9749C0.368749 33.3185 0 32.4283 0 31.5C4.76837e-07 30.5717 0.368749 29.6815 1.02513 29.0251C1.6815 28.3687 2.57174 28 3.5 28C4.42826 28 5.3185 28.3687 5.97487 29.0251C6.63125 29.6815 7 30.5717 7 31.5ZM3.5 21C4.42826 21 5.3185 20.6313 5.97487 19.9749C6.63125 19.3185 7 18.4283 7 17.5C7 16.5717 6.63125 15.6815 5.97487 15.0251C5.3185 14.3687 4.42826 14 3.5 14C2.57174 14 1.6815 14.3687 1.02513 15.0251C0.368749 15.6815 4.76837e-07 16.5717 0 17.5C4.76837e-07 18.4283 0.368749 19.3185 1.02513 19.9749C1.6815 20.6313 2.57174 21 3.5 21ZM3.5 7C4.42826 7 5.3185 6.63125 5.97487 5.97487C6.63125 5.31849 7 4.42826 7 3.5C7 2.57174 6.63125 1.68151 5.97487 1.02513C5.3185 0.368752 4.42826 0 3.5 0C2.57174 0 1.6815 0.368752 1.02513 1.02513C0.368749 1.68151 4.76837e-07 2.57174 0 3.5C4.76837e-07 4.42826 0.368749 5.31849 1.02513 5.97487C1.6815 6.63125 2.57174 7 3.5 7Z" fill="black"/>
</svg>
