<svg width="35" height="28" viewBox="0 0 35 28" fill="none" xmlns="http://www.w3.org/2000/svg">
<path d="M15.8951 24.811L15.8928 24.8092C11.3542 21.2206 7.71637 18.337 5.19591 15.6482C2.68199 12.9665 1.5 10.7044 1.5 8.39237C1.5 4.69391 4.86189 1.5 9.625 1.5C12.2876 1.5 14.8189 2.58829 16.431 4.22609L17.5 5.31212L18.569 4.22609C20.1811 2.58829 22.7124 1.5 25.375 1.5C30.1381 1.5 33.5 4.69391 33.5 8.39237C33.5 10.7044 32.318 12.9665 29.8041 15.6482C27.2836 18.337 23.6458 21.2206 19.1072 24.8092L19.1049 24.811L17.5 26.0849L15.8951 24.811Z" fill="#F28D77" stroke="black" stroke-width="3"/>
</svg>
