<svg width="51" height="51" viewBox="0 0 51 51" fill="none" xmlns="http://www.w3.org/2000/svg">
<path d="M25.5 43.8C19.1458 43.8 13.5287 40.5466 10.25 35.6666C10.3262 30.5833 20.4166 27.7875 25.5 27.7875C30.5833 27.7875 40.6737 30.5833 40.75 35.6666C39.0697 38.1687 36.7999 40.2192 34.1405 41.6375C31.4812 43.0558 28.5139 43.7984 25.5 43.8ZM25.5 7.70831C27.5223 7.70831 29.4617 8.51166 30.8917 9.94162C32.3216 11.3716 33.125 13.311 33.125 15.3333C33.125 17.3556 32.3216 19.295 30.8917 20.725C29.4617 22.155 27.5223 22.9583 25.5 22.9583C23.4777 22.9583 21.5383 22.155 20.1083 20.725C18.6783 19.295 17.875 17.3556 17.875 15.3333C17.875 13.311 18.6783 11.3716 20.1083 9.94162C21.5383 8.51166 23.4777 7.70831 25.5 7.70831ZM25.5 0.083313C22.1622 0.083313 18.8571 0.740735 15.7734 2.01804C12.6897 3.29535 9.88784 5.16753 7.52768 7.52768C2.76113 12.2942 0.083313 18.7591 0.083313 25.5C0.083313 32.2409 2.76113 38.7057 7.52768 43.4723C9.88784 45.8324 12.6897 47.7046 15.7734 48.9819C18.8571 50.2592 22.1622 50.9166 25.5 50.9166C32.2409 50.9166 38.7057 48.2388 43.4723 43.4723C48.2388 38.7057 50.9166 32.2409 50.9166 25.5C50.9166 11.4446 39.4791 0.083313 25.5 0.083313Z" fill="#E9CA7C"/>
</svg>
