<svg width="38" height="38" viewBox="0 0 38 38" fill="none" xmlns="http://www.w3.org/2000/svg">
<path d="M17.1667 37.3333V29.725L11.2084 35.5916L8.64169 33.025L17.1667 24.5V20.8333H13.5L4.97502 29.3583L2.40835 26.7916L8.27502 20.8333H0.666687V17.1666H8.27502L2.40835 11.2083L4.97502 8.64163L13.5 17.1666H17.1667V13.5L8.64169 4.97496L11.2084 2.40829L17.1667 8.27496V0.666626H20.8334V8.27496L26.7917 2.40829L29.3584 4.97496L20.8334 13.5V17.1666H24.5L33.025 8.64163L35.5917 11.2083L29.725 17.1666H37.3334V20.8333H29.725L35.5917 26.7916L33.025 29.3583L24.5 20.8333H20.8334V24.5L29.3584 33.025L26.7917 35.5916L20.8334 29.725V37.3333H17.1667Z" fill="#7DB9F1"/>
</svg>
