<svg width="46" height="46" viewBox="0 0 46 46" fill="none" xmlns="http://www.w3.org/2000/svg">
<path d="M31.499 14.501C36.2046 19.2067 36.2046 26.7933 31.499 31.499C26.7933 36.2046 19.2067 36.2046 14.5251 31.499C9.84342 26.7933 9.79541 19.2067 14.5251 14.501C19.2547 9.79541 26.7933 9.79541 31.499 14.501ZM40.9342 5.11378C40.9342 5.11378 38.6054 5.40188 36.0365 7.05845C35.6273 4.3793 34.3643 1.90377 32.4353 0C31.1986 1.19258 30.302 2.69316 29.8378 4.3473C29.3737 6.00145 29.3587 7.7494 29.7944 9.41127C33.1315 10.2756 35.7244 12.8685 36.5887 16.2056C39.2777 16.9259 43.023 16.5658 46 13.5647C44.1179 11.6632 41.6794 10.4103 39.0376 9.98747C39.9739 8.59499 40.7182 6.98643 40.9342 5.11378ZM5.06576 40.8862C5.06576 40.8862 7.39457 40.5981 9.96347 38.9415C10.3236 41.4384 11.524 43.9593 13.5647 46C16.5658 43.023 16.9259 39.2777 16.2056 36.5887C14.5694 36.1665 13.0761 35.3136 11.8812 34.1188C10.6863 32.9239 9.83345 31.4306 9.41127 29.7944C6.72234 29.0741 2.97704 29.4342 0 32.4353C2.0167 34.452 4.48956 35.6524 6.96242 36.0125C6.0261 37.405 5.28184 39.0376 5.06576 40.8862Z" fill="#DF9AAF"/>
</svg>
