<svg width="41" height="41" viewBox="0 0 41 41" fill="none" xmlns="http://www.w3.org/2000/svg">
<path d="M29.1667 25.5H27.3233L26.67 24.8925C29.0357 22.2466 30.3359 18.8686 30.3333 15.375C30.3333 12.4825 29.4438 9.65486 27.7773 7.24979C26.1108 4.84472 23.7421 2.9702 20.9707 1.86327C18.1994 0.756337 15.1498 0.466713 12.2078 1.03102C9.26576 1.59533 6.56332 2.98823 4.44222 5.03357C2.32112 7.07891 0.876639 9.68484 0.29143 12.5218C-0.293779 15.3588 0.00657148 18.2994 1.1545 20.9718C2.30243 23.6441 4.24638 25.9282 6.74053 27.5352C9.23467 29.1423 12.167 30 15.1667 30C18.9233 30 22.3767 28.6725 25.0367 26.4675L25.6667 27.0975V28.875L37.3333 40.1025L40.81 36.75L29.1667 25.5ZM15.1667 25.5C9.35667 25.5 4.66667 20.9775 4.66667 15.375C4.66667 9.77251 9.35667 5.25001 15.1667 5.25001C20.9767 5.25001 25.6667 9.77251 25.6667 15.375C25.6667 20.9775 20.9767 25.5 15.1667 25.5Z" fill="white"/>
</svg>
