<svg width="35" height="32" viewBox="0 0 35 32" fill="none" xmlns="http://www.w3.org/2000/svg">
<path d="M11.5 28.7058V28.704V11.9354C11.5 11.7092 11.5451 11.5027 11.6368 11.3013C11.7438 11.0662 11.8828 10.8667 12.0558 10.6937C12.0567 10.6928 12.0576 10.6919 12.0585 10.691L21.0737 1.81785C21.2601 1.65049 21.4684 1.55182 21.7363 1.51309C21.9845 1.4772 22.2161 1.5129 22.473 1.64692L22.4742 1.64752C22.7397 1.78571 22.8762 1.94247 22.9604 2.11819C23.0449 2.29478 23.0553 2.43567 23.0096 2.60629L23.0057 2.62051L23.0022 2.6348L21.1272 10.2157L20.6671 12.0758H22.5833H31.6667C32.1373 12.0758 32.5424 12.2328 32.9453 12.6312C33.3481 13.0295 33.5 13.4224 33.5 13.8718V17.1679C33.5 17.2512 33.4907 17.3616 33.4636 17.5028C33.4404 17.6238 33.4084 17.7258 33.3715 17.8125C33.3713 17.813 33.371 17.8136 33.3708 17.8141L28.3794 29.4127C28.2627 29.663 28.0541 29.9206 27.6744 30.1708C27.3122 30.4096 26.9847 30.5 26.6667 30.5H13.3333C12.8126 30.5 12.4063 30.3334 12.033 29.9644C11.6603 29.5958 11.4994 29.2031 11.5 28.7058ZM3.33513 30.5H3.33334C2.8126 30.5 2.40627 30.3334 2.03301 29.9644C1.66031 29.5958 1.49939 29.2031 1.5 28.7058V28.704V13.8718C1.5 13.3723 1.66193 12.9784 2.03468 12.6098C2.40788 12.2408 2.81308 12.0752 3.33154 12.0758H3.33334C3.85407 12.0758 4.2604 12.2424 4.63366 12.6115C5.00636 12.98 5.16728 13.3728 5.16667 13.87V13.8718V28.704C5.16667 29.2035 5.00475 29.5974 4.63199 29.966C4.25879 30.335 3.8536 30.5006 3.33513 30.5ZM2.82966e-06 28.704V13.8718C2.82966e-06 12.9654 0.32667 12.1892 0.980003 11.5432C1.63334 10.8972 2.41778 10.5747 3.33334 10.5758C4.25 10.5758 5.035 10.8988 5.68834 11.5448C6.34167 12.1909 6.66778 12.9665 6.66667 13.8718L2.82966e-06 28.704Z" fill="#A5CFFF" stroke="black" stroke-width="3"/>
</svg>
