<svg width="25" height="25" viewBox="0 0 25 25" fill="none" xmlns="http://www.w3.org/2000/svg">
<path d="M21.9292 8.52804L16.4396 3.10304L18.2479 1.29471C18.7431 0.799571 19.3514 0.552002 20.073 0.552002C20.7947 0.552002 21.4026 0.799571 21.8969 1.29471L23.7052 3.10304C24.2003 3.59818 24.4587 4.19579 24.4802 4.89588C24.5017 5.59596 24.2649 6.19314 23.7698 6.68742L21.9292 8.52804ZM2.16667 24.1249C1.8007 24.1249 1.49371 24.0009 1.24571 23.7529C0.997713 23.5049 0.874143 23.1984 0.875004 22.8333V19.1843C0.875004 19.0121 0.907296 18.845 0.97188 18.6831C1.03646 18.5212 1.13334 18.3761 1.2625 18.2478L14.5667 4.94367L20.0563 10.4333L6.75209 23.7374C6.62292 23.8666 6.47782 23.9635 6.3168 24.028C6.15577 24.0926 5.98871 24.1249 5.81563 24.1249H2.16667Z" fill="black"/>
</svg>
