<svg width="36" height="36" viewBox="0 0 36 36" fill="none" xmlns="http://www.w3.org/2000/svg">
<path d="M33.5354 13.9522L33.5402 13.9474C33.5851 13.902 33.6456 13.8756 33.7093 13.8734C33.7731 13.8713 33.8352 13.8936 33.8831 13.9357C33.9309 13.9779 33.9609 14.0368 33.9667 14.1003C33.9718 14.1555 33.9584 14.2107 33.9289 14.2572L33.8558 14.3399L28.9394 19.2563C28.9394 19.2563 28.9394 19.2563 28.9393 19.2563C28.8963 19.2994 28.839 19.3252 28.7783 19.329C28.7263 19.3323 28.6748 19.3192 28.6309 19.292L28.5532 19.2234L26.1117 16.7818L26.1117 16.7818L26.1066 16.7768C26.0613 16.7319 26.0349 16.6714 26.0327 16.6077C26.0305 16.5439 26.0528 16.4818 26.095 16.4339C26.1371 16.3861 26.196 16.3561 26.2595 16.3503C26.3141 16.3452 26.3685 16.3582 26.4146 16.3869L26.4946 16.4584L27.7021 17.6659L28.763 18.7268L29.8237 17.6657L33.5354 13.9522ZM23 23C24.9228 23 26.7669 23.7638 28.1265 25.1235C29.4862 26.4831 30.25 28.3272 30.25 30.25V32C30.25 32.5304 30.0393 33.0391 29.6642 33.4142C29.2891 33.7893 28.7804 34 28.25 34H3.75C3.21957 34 2.71086 33.7893 2.33579 33.4142C1.96071 33.0391 1.75 32.5304 1.75 32V30.25C1.75 28.3272 2.51384 26.4831 3.87348 25.1235L2.81282 24.0628L3.87348 25.1235C5.23312 23.7638 7.07718 23 9 23H23ZM16 2C17.9228 2 19.7669 2.76384 21.1265 4.12348C22.4862 5.48312 23.25 7.32718 23.25 9.25C23.25 11.1728 22.4862 13.0169 21.1265 14.3765C19.7669 15.7362 17.9228 16.5 16 16.5C14.0772 16.5 12.2331 15.7362 10.8735 14.3765C9.51384 13.0169 8.75 11.1728 8.75 9.25C8.75 7.32718 9.51384 5.48311 10.8735 4.12348C12.2331 2.76384 14.0772 2 16 2Z" fill="#F2E677" stroke="black" stroke-width="3"/>
</svg>
