<svg width="42" height="37" viewBox="0 0 42 37" fill="none" xmlns="http://www.w3.org/2000/svg">
<path d="M36.3 12.3812C36.1007 12.4354 35.9037 12.4977 35.7096 12.5685L35.6699 12.5317L24.1199 1.82118L23.7736 1.5H24.6115L36.3 12.3389V12.3812ZM21.6 1.5V2.92105V13.6316V15.1316H23.1H32.1494L15.7801 30.3112L15.3 30.7563V31.4111V33.5526H4.2C3.44892 33.5526 2.74926 33.2749 2.25009 32.812C1.75473 32.3527 1.5 31.7549 1.5 31.1579V3.89474C1.5 2.66616 2.58883 1.5 4.2 1.5H21.6ZM38.157 19.163L40.235 21.09L39.627 21.6538L37.549 19.7268L38.157 19.163ZM22.5 33.6821L33.873 23.1357L35.951 25.0626L24.6955 35.5H22.5V33.6821Z" fill="#F2E677" stroke="black" stroke-width="3"/>
</svg>
