<svg width="41" height="33" viewBox="0 0 41 33" fill="none" xmlns="http://www.w3.org/2000/svg">
<path d="M18.4635 29.4541L18.4613 29.4523C13.1503 25.2274 8.87099 21.8154 5.90214 18.6291C2.94044 15.4504 1.5 12.72 1.5 9.89101C1.5 5.34266 5.59697 1.5 11.275 1.5C14.4567 1.5 17.488 2.80685 19.4278 4.7896L20.5 5.88551L21.5722 4.78959C23.512 2.80685 26.5433 1.5 29.725 1.5C35.403 1.5 39.5 5.34266 39.5 9.89101C39.5 12.72 38.0596 15.4504 35.0979 18.6291C32.129 21.8154 27.8497 25.2274 22.5387 29.4523L22.5365 29.4541L20.5 31.0804L18.4635 29.4541Z" fill="#F28D77" stroke="black" stroke-width="3"/>
</svg>
