<svg width="221" height="221" viewBox="0 0 221 221" fill="none" xmlns="http://www.w3.org/2000/svg">
<path d="M110.5 190C82.8958 190 58.4937 175.867 44.25 154.667C44.5812 132.583 88.4166 120.437 110.5 120.437C132.583 120.437 176.419 132.583 176.75 154.667C169.45 165.536 159.59 174.444 148.037 180.605C136.484 186.767 123.593 189.993 110.5 190ZM110.5 33.2083C119.285 33.2083 127.711 36.6982 133.923 42.9103C140.135 49.1225 143.625 57.548 143.625 66.3333C143.625 75.1185 140.135 83.544 133.923 89.7562C127.711 95.9683 119.285 99.4582 110.5 99.4582C101.715 99.4582 93.2892 95.9683 87.0771 89.7562C80.8649 83.544 77.375 75.1185 77.375 66.3333C77.375 57.548 80.8649 49.1225 87.0771 42.9103C93.2892 36.6982 101.715 33.2083 110.5 33.2083ZM110.5 0.083252C95.9998 0.083252 81.6417 2.93926 68.2453 8.48822C54.849 14.0372 42.6767 22.1704 32.4236 32.4235C11.7165 53.1307 0.083313 81.2156 0.083313 110.5C0.083313 139.784 11.7165 167.869 32.4236 188.576C42.6767 198.829 54.849 206.963 68.2453 212.512C81.6417 218.061 95.9998 220.917 110.5 220.917C139.784 220.917 167.869 209.283 188.576 188.576C209.283 167.869 220.917 139.784 220.917 110.5C220.917 49.4395 171.229 0.083252 110.5 0.083252Z" fill="#E9CA7C"/>
</svg>
