<svg width="240" height="239" viewBox="0 0 240 239" fill="none" xmlns="http://www.w3.org/2000/svg">
<path d="M120 205.54C90 205.54 63.48 190.244 48 167.3C48.36 143.4 96 130.255 120 130.255C144 130.255 191.64 143.4 192 167.3C184.067 179.064 173.35 188.704 160.795 195.373C148.239 202.041 134.23 205.533 120 205.54ZM120 35.85C129.548 35.85 138.705 39.627 145.456 46.3502C152.207 53.0734 156 62.192 156 71.7C156 81.208 152.207 90.3266 145.456 97.0498C138.705 103.773 129.548 107.55 120 107.55C110.452 107.55 101.295 103.773 94.5442 97.0498C87.7928 90.3266 84 81.208 84 71.7C84 62.192 87.7928 53.0734 94.5442 46.3502C101.295 39.627 110.452 35.85 120 35.85ZM120 0C104.241 0 88.6371 3.09096 74.078 9.0964C59.5189 15.1018 46.2902 23.9041 35.1472 35.0007C12.6428 57.4113 0 87.8066 0 119.5C0 151.193 12.6428 181.589 35.1472 203.999C46.2902 215.096 59.5189 223.898 74.078 229.904C88.6371 235.909 104.241 239 120 239C151.826 239 182.348 226.41 204.853 203.999C227.357 181.589 240 151.193 240 119.5C240 53.4165 186 0 120 0Z" fill="#CDB5EC"/>
</svg>
