<svg width="54" height="54" viewBox="0 0 54 54" fill="none" xmlns="http://www.w3.org/2000/svg">
<path d="M17.37 37.026L21.3323 35.883L45.189 11.7405C45.3772 11.5477 45.4819 11.2885 45.4807 11.0191C45.4794 10.7497 45.3722 10.4916 45.1822 10.3005L43.7535 8.85599C43.6612 8.76112 43.5509 8.6856 43.429 8.63382C43.3072 8.58204 43.1763 8.55505 43.0439 8.55442C42.9115 8.55379 42.7804 8.57954 42.6581 8.63016C42.5357 8.68078 42.4247 8.75525 42.3315 8.84924L18.5377 32.9287L17.3678 37.0237L17.37 37.026ZM46.5817 5.99399L48.0105 7.44074C49.9815 9.43649 49.9995 12.6562 48.0465 14.6317L23.463 39.5122L14.994 41.9512C14.4769 42.096 13.9236 42.0296 13.4554 41.7669C12.9871 41.5041 12.6423 41.0662 12.4965 40.5495C12.388 40.178 12.3865 39.7834 12.492 39.411L14.9557 30.771L39.474 5.95574C39.9402 5.4863 40.4952 5.11438 41.1067 4.86168C41.7182 4.60899 42.3738 4.48057 43.0354 4.48392C43.697 4.48727 44.3513 4.62232 44.9602 4.8812C45.5691 5.14008 46.1203 5.51985 46.5817 5.99399ZM20.664 8.58824C21.78 8.58824 22.6845 9.50399 22.6845 10.6335C22.6863 10.9005 22.6354 11.1652 22.5348 11.4126C22.4342 11.6599 22.2858 11.885 22.0982 12.0749C21.9105 12.2649 21.6873 12.416 21.4412 12.5196C21.1951 12.6232 20.931 12.6773 20.664 12.6787H12.582C10.35 12.6787 8.541 14.5102 8.541 16.767V41.3055C8.541 43.5645 10.35 45.396 12.582 45.396H36.828C39.06 45.396 40.8713 43.5645 40.8713 41.3055V33.1267C40.8713 31.9972 41.7757 31.0815 42.8918 31.0815C44.0077 31.0815 44.9123 31.9972 44.9123 33.129V41.3055C44.9123 45.8235 41.292 49.4865 36.828 49.4865H12.582C8.118 49.4865 4.5 45.8235 4.5 41.3055V16.767C4.5 12.2512 8.118 8.58824 12.582 8.58824H20.664Z" fill="#F8F8F8"/>
</svg>
