<svg width="36" height="36" viewBox="0 0 36 36" fill="none" xmlns="http://www.w3.org/2000/svg">
<path d="M18 30.6C13.625 30.6 9.7575 28.36 7.5 25C7.5525 21.5 14.5 19.575 18 19.575C21.5 19.575 28.4475 21.5 28.5 25C27.3431 26.7227 25.7803 28.1345 23.9492 29.1111C22.1182 30.0876 20.0752 30.5989 18 30.6ZM18 5.75C19.3924 5.75 20.7277 6.30312 21.7123 7.28769C22.6969 8.27226 23.25 9.60761 23.25 11C23.25 12.3924 22.6969 13.7277 21.7123 14.7123C20.7277 15.6969 19.3924 16.25 18 16.25C16.6076 16.25 15.2723 15.6969 14.2877 14.7123C13.3031 13.7277 12.75 12.3924 12.75 11C12.75 9.60761 13.3031 8.27226 14.2877 7.28769C15.2723 6.30312 16.6076 5.75 18 5.75ZM18 0.5C15.7019 0.5 13.4262 0.952651 11.303 1.83211C9.17984 2.71157 7.25066 4.00061 5.62563 5.62563C2.34374 8.90752 0.5 13.3587 0.5 18C0.5 22.6413 2.34374 27.0925 5.62563 30.3744C7.25066 31.9994 9.17984 33.2884 11.303 34.1679C13.4262 35.0474 15.7019 35.5 18 35.5C22.6413 35.5 27.0925 33.6563 30.3744 30.3744C33.6563 27.0925 35.5 22.6413 35.5 18C35.5 8.3225 27.625 0.5 18 0.5Z" fill="black"/>
</svg>
